#!OML:ASF E:/inclinewalkrobotboard/Project1/Captureday1/Session1/subject1.ASF
:FULLY-SPECIFIED
:DEGREES
163
root 0 0 0 -1.470460750767189 -1.4987316239666164 -3.9992040826004516
lowerback 19.749112546687577 3.0353422866896156 0.15276434500264435
upperback 2.246079720532534 4.100562692650684 -0.5284662650242482
thorax -8.636971011283741 1.9749048480756888 -1.315617474089863
lowerneck -8.613543390478002 -5.960515454003205 -1.494232385562434
upperneck -1.055620533283859 -8.606063829050747 5.852466905076247
head 1.3440133568906205 -3.941750819438022 1.5439605406265149
rclavicle -8.953233919324843E-16 7.374968381160521E-16
rhumerus 36.616340950625364 -3.90310204797938 -29.021961608668718
rradius 150.61873694378298
rwrist -24.80902497384706
rhand -19.304781311076653 -31.115987752252217
rfingers 7.125019999999953
rthumb 7.031883734302127 -60.9260741091005
lclavicle -1.7215403688743293E-15 9.267883139962407E-16
lhumerus -47.37162334599496 -6.209801874810591 79.84792486766507
lradius 62.02028947986416
lwrist 10.80542581127577
lhand -14.527444560909947 -19.94165786540102
lfingers 7.125019999999869
lthumb 11.5571757602709 9.776491146374191
rfemur -0.20801563822662184 8.967677067949975 35.7496013610458
rtibia 26.51767250775806
rfoot -21.68699340489138 -7.89059236698212
rtoes 5.8241459954457575
lfemur -25.83340074804597 2.389298195998984 -15.219772037417918
ltibia 53.4279338403761
lfoot -3.0045752498451836 -5.11594931030609
ltoes 2.655650944434136
164
root 0 0 0 -1.4816115943574997 -1.55106423656455 -3.9862264496230515
lowerback 19.886920528198935 3.023776421057004 0.1400519923811161
upperback 2.2724584174158107 4.084264168540244 -0.5264836499344687
thorax -8.688407372580102 1.9660807908176303 -1.3065051163565105
lowerneck -8.602956374631574 -5.944092884397085 -1.454418692136502
upperneck -1.2222044069628701 -8.571337647702133 5.7804826880158044
head 1.295213144737331 -3.9304517990143095 1.5180470036776192
rclavicle -7.449656857368988E-16 1.022968905115334E-15
rhumerus 36.423279765529585 -4.303382206271893 -29.304225716510857
rradius 150.3938709054252
rwrist -24.22438433583369
rhand -19.511333015624654 -31.0307905616803
rfingers 7.125019999999957
rthumb 6.835000779841194 -60.85202437693216
lclavicle -1.6114567761240133E-15 1.1377013843443573E-15
lhumerus -47.383090347468894 -6.161215614076901 79.75258623876307
lradius 61.99261074480691
lwrist 10.838984406304318
lhand -14.58085048822433 -19.836724163947665
lfingers 7.125019999999866
lthumb 11.504265311139584 9.89847145403154
rfemur -0.48580327138700463 8.810988277489713 35.54981722027755
rtibia 27.448579016608903
rfoot -21.293952385704902 -7.949127577944332
rtoes 5.143469235471564
lfemur -26.860681689218442 1.5463101104559045 -16.637698774685305
ltibia 46.54048209024333
lfoot -3.167406851882939 -4.240656698759866
ltoes 8.27593942936636
165
root 0 0 0 -1.4803790464475255 -1.5656426307991027 -3.9776063822644723
lowerback 19.991889478222134 3.0100567999538317 0.11408769295018928
upperback 2.2816965417953243 4.064647190947165 -0.5168651004734259
thorax -8.737767663928825 1.9564710006543327 -1.281124694318918
lowerneck -8.57713277149806 -5.936294594730101 -1.4177366744383384
upperneck -1.2579872396338896 -8.553223805858305 5.72119321251178
head 1.2883927309254979 -3.924674288693814 1.494607204252468
rclavicle -5.170037441347448E-16 1.1559349669623127E-15
rhumerus 36.186039677760895 -4.815638072491004 -29.58442579563217
rradius 149.89857034884506
rwrist -23.59426141865486
rhand -19.6534524816961 -30.955126767990002
rfingers 7.125019999999959
rthumb 6.6996668330490685 -60.782896431540195
lclavicle -1.4360228580030983E-15 1.2241795392601536E-15
lhumerus -47.37604526546693 -6.130583710310519 79.69275185592277
lradius 61.97002561771308
lwrist 10.863192008442216
lhand -14.62169791105913 -19.762685426297963
lfingers 7.125019999999864
lthumb 11.463604442036846 9.987376886913072
rfemur -1.7201070975710482 8.63136204078791 35.26343730074402
rtibia 28.772065842675488
rfoot -20.49085509297057 -8.03162622105574
rtoes 4.749547121033258
lfemur -26.496158136161306 0.9928501612532519 -17.408166035097132
ltibia 43.106315733839565
lfoot -2.793164255155304 -4.173077730013978
ltoes 10.630996747943676
166
root 0 0 0 -1.4718198875999469 -1.5534561427721014 -3.9702842024884326
lowerback 20.082762322409398 2.9918743478415823 0.07322076183363224
upperback 2.2818747090109093 4.038419235490464 -0.49817862986078754
thorax -8.787372188774786 1.94445620653492 -1.2367871445056817
lowerneck -8.53499053397627 -5.934563413108073 -1.380235406929362
upperneck -1.1844325936702926 -8.54563725503423 5.663861555528513
head 1.3167267503904183 -3.9225114000882026 1.470049631104319
rclavicle -3.1160902539164146E-16 1.1493872867336E-15
rhumerus 35.857624859000474 -5.47109130158492 -29.931709401359868
rradius 149.11318688705506
rwrist -22.825830070402763
rhand -19.773761181267055 -30.858970429320244
rfingers 7.125019999999962
rthumb 6.585060493643635 -60.692327122594044
lclavicle -1.2547888609313483E-15 1.1967844581072768E-15
lhumerus -47.362909987271024 -6.105857313471448 79.64207393783951
lradius 61.95097488250772
lwrist 10.8891672604845
lhand -14.661257675055928 -19.692444450029154
lfingers 7.1250199999998625
lthumb 11.423380181083628 10.073046632256212
rfemur -4.097818524172651 8.383306340186952 34.85689155304945
rtibia 30.868050711486646
rfoot -19.131093269513112 -8.166628711314907
rtoes 4.580046121685012
lfemur -25.172698662320173 0.5622902009584592 -18.07470931934805
ltibia 41.246564318856116
lfoot -1.9630676656165633 -4.714337260534157
ltoes 11.774025272959733
167
root 0 0 0 -1.4562303652931832 -1.5085010601307365 -3.9639819308585604
lowerback 20.153293793278436 2.967778494464933 0.014763221804425686
upperback 2.2761766317071093 4.003482581546382 -0.4679976119764335
thorax -8.830011849890353 1.9292715869034076 -1.1688608334748694
lowerneck -8.472922150619894 -5.941074195575705 -1.3447710141764355
upperneck -0.9758596551509005 -8.551743189555397 5.6109564475619536
head 1.3871737333427747 -3.9252794434587868 1.445231470516601
rclavicle -6.895385245832437E-17 9.720012761203959E-16
rhumerus 35.41539830276462 -6.243989145387529 -30.37566591004864
rradius 147.97503413041085
rwrist -21.896354791245265
rhand -19.85642306351526 -30.717365192713356
rfingers 7.125019999999965
rthumb 6.50633712841295 -60.55445202629743
lclavicle -1.04737036298905E-15 1.042996669269295E-15
lhumerus -47.34328679202924 -6.085126702365506 79.5998381370516
lradius 61.93421117582315
lwrist 10.915689218910561
lhand -14.699482428825778 -19.626022325232263
lfingers 7.125019999999861
lthumb 11.38386263630274 10.155681249395467
rfemur -7.861955472552962 8.049870062361343 34.311110289835085
rtibia 33.92559992707649
rfoot -17.135199352022173 -8.389071191657267
rtoes 4.8475050526039265
lfemur -23.16988099242533 0.28471381239875626 -18.751861410840434
ltibia 40.77597468287101
lfoot -0.7906103404883638 -5.788408550064131
ltoes 12.193431768623029
168
root 0 0 0 -1.4365767030326362 -1.4378977608733288 -3.9576266993596403
lowerback 20.20978799149136 2.934777741206714 -0.06459633994975456
upperback 2.2726959419661434 3.955786595700065 -0.42272269409978747
thorax -8.860844996036732 1.9090472742834708 -1.0711049815335845
lowerneck -8.382016960643957 -5.954089247681944 -1.3076844360454165
upperneck -0.6319762780813551 -8.567016073809063 5.554321567996901
head 1.4981080754405234 -3.9316052258940353 1.4173626059932531
rclavicle 2.4208754762051394E-16 6.481473609601636E-16
rhumerus 34.777029583745396 -7.125830254729658 -31.002385532234793
rradius 146.37297091743747
rwrist -20.71972607161217
rhand -19.902067361831257 -30.493712890620632
rfingers 7.125019999999967
rthumb 6.462923449845853 -60.33314187853469
lclavicle -8.33071439262044E-16 8.061358590903237E-16
lhumerus -47.31273592147736 -6.073104918916501 79.56942304477273
lradius 61.92149302592988
lwrist 10.94588601282172
lhand -14.736597972370966 -19.557745904200324
lfingers 7.12501999999986
lthumb 11.344941927539807 10.240308431086177
rfemur -12.386954458829774 7.567230919639713 33.602891430989224
rtibia 37.93012404565357
rfoot -14.75424653934714 -8.643461397801904
rtoes 5.507709555384449
lfemur -20.807014911354912 0.103211040815117 -19.400176815319213
ltibia 41.24686803871021
lfoot 0.5722535663679231 -7.171479625126426
ltoes 12.012123481649517
